<svg width="24" height="24" viewBox="0 0 24 24" fill="none" xmlns="http://www.w3.org/2000/svg">
<path d="M19.2 12.176C19.2 11.68 19.152 11.168 19.072 10.688H12.144V13.52H16.112C15.952 14.432 15.424 15.232 14.64 15.744L17.008 17.584C18.4 16.288 19.2 14.4 19.2 12.176Z" fill="#4280EF"/>
<path d="M12.144 19.3441C14.128 19.3441 15.792 18.6881 17.008 17.5681L14.64 15.7441C13.984 16.1921 13.136 16.4481 12.144 16.4481C10.224 16.4481 8.60804 15.1521 8.01604 13.4241L5.58405 15.2961C6.83205 17.7761 9.36005 19.3441 12.144 19.3441Z" fill="#34A353"/>
<path d="M8.01602 13.4081C7.71202 12.4961 7.71202 11.5041 8.01602 10.5921L5.58402 8.7041C4.54402 10.7841 4.54402 13.2321 5.58402 15.2961L8.01602 13.4081Z" fill="#F6B704"/>
<path d="M12.144 7.56804C13.184 7.55204 14.208 7.95204 14.96 8.67204L17.056 6.56004C15.728 5.31204 13.968 4.64004 12.144 4.65604C9.36005 4.65604 6.83205 6.22404 5.58405 8.70404L8.01604 10.592C8.60804 8.84804 10.224 7.56804 12.144 7.56804Z" fill="#E54335"/>
</svg>
