<svg width="18" height="18" viewBox="0 0 18 18" fill="none" xmlns="http://www.w3.org/2000/svg">
<path d="M1.48446 9.30824C1.39438 9.19698 1.31288 9.09368 1.24039 9C1.31288 8.90632 1.39438 8.80302 1.48446 8.69175C1.91801 8.15628 2.54388 7.44437 3.31349 6.73557C4.88844 5.28506 6.89993 4 9 4C11.1001 4 13.1116 5.28506 14.6865 6.73557C15.4561 7.44437 16.082 8.15628 16.5155 8.69175C16.6056 8.80302 16.6871 8.90632 16.7596 9C16.6871 9.09368 16.6056 9.19698 16.5155 9.30824C16.082 9.84372 15.4561 10.5556 14.6865 11.2644C13.1116 12.7149 11.1001 14 9 14C6.89993 14 4.88844 12.7149 3.31349 11.2644C2.54388 10.5556 1.91801 9.84372 1.48446 9.30824Z" stroke="#4280EF" stroke-width="2"/>
<path d="M11.75 9C11.75 10.5188 10.5188 11.75 9 11.75C7.48122 11.75 6.25 10.5188 6.25 9C6.25 7.48122 7.48122 6.25 9 6.25C10.5188 6.25 11.75 7.48122 11.75 9Z" stroke="#4280EF" stroke-width="2"/>
<path d="M2 2L16 16" stroke="#4280EF" stroke-width="2" stroke-linecap="round"/>
</svg>
