<svg width="24" height="24" viewBox="0 0 24 24" fill="none" xmlns="http://www.w3.org/2000/svg">
<path d="M19.1999 12.176C19.1999 11.68 19.1519 11.168 19.0719 10.688H12.1439V13.52H16.1119C15.9519 14.432 15.4239 15.232 14.6399 15.744L17.0079 17.584C18.3999 16.288 19.1999 14.4 19.1999 12.176Z" fill="#4280EF"/>
<path d="M12.144 19.344C14.128 19.344 15.792 18.688 17.008 17.568L14.64 15.744C13.984 16.192 13.136 16.448 12.144 16.448C10.224 16.448 8.60798 15.152 8.01598 13.424L5.58398 15.2959C6.83198 17.7759 9.35998 19.344 12.144 19.344Z" fill="#34A353"/>
<path d="M8.01595 13.408C7.71195 12.496 7.71195 11.504 8.01595 10.592L5.58396 8.70398C4.54396 10.784 4.54396 13.232 5.58396 15.296L8.01595 13.408Z" fill="#F6B704"/>
<path d="M12.144 7.56798C13.184 7.55198 14.208 7.95198 14.96 8.67198L17.056 6.55998C15.728 5.31198 13.968 4.63998 12.144 4.65598C9.35998 4.65598 6.83198 6.22398 5.58398 8.70398L8.01598 10.592C8.60798 8.84798 10.224 7.56798 12.144 7.56798Z" fill="#E54335"/>
</svg>
